<svg xmlns="http://www.w3.org/2000/svg" viewBox="0 0 220 130" width="220" height="130">
  <path d="M20 110 A90 90 0 0 1 200 110 Z" fill="none" stroke="#333" stroke-width="6"/>
  <path d="M20 110 A90 90 0 0 1 56 35 L110 110 Z" fill="#2e9e44"/>
  <path d="M56 35 A90 90 0 0 1 92 22 L110 110 Z" fill="#8bc34a"/>
  <path d="M92 22 A90 90 0 0 1 128 22 L110 110 Z" fill="#f6d55c"/>
  <path d="M128 22 A90 90 0 0 1 164 35 L110 110 Z" fill="#f0a020"/>
  <path d="M164 35 A90 90 0 0 1 200 110 L110 110 Z" fill="#d62828"/>
  <text x="38" y="98" font-family="Arial,sans-serif" font-size="12" font-weight="700" fill="#111">1</text>
  <text x="72" y="58" font-family="Arial,sans-serif" font-size="12" font-weight="700" fill="#111">2</text>
  <text x="106" y="42" font-family="Arial,sans-serif" font-size="12" font-weight="700" fill="#111">3</text>
  <text x="140" y="58" font-family="Arial,sans-serif" font-size="12" font-weight="700" fill="#111">4</text>
  <text x="174" y="98" font-family="Arial,sans-serif" font-size="12" font-weight="700" fill="#111">5</text>
  <circle cx="110" cy="110" r="10" fill="#fff" stroke="#333" stroke-width="2"/>
  <line x1="110" y1="110" x2="110" y2="38" stroke="#c62828" stroke-width="3" stroke-linecap="round"/>
  <circle cx="110" cy="38" r="5" fill="#c62828"/>
</svg>
